Normalized EMG Linear Envelopes
nRows=32
nColumns=17

endheader
time	1_BAD	2_Glutmax_R	3_Vaslat_R	4_Recfem_R	5_Bifem_R	6_Gasmed_R	7_BAD	8_Soleus_R	9_Tibant_R	10_Glutmax_L	11_Vaslat_L	12_Recfem_L	13_Bifem_L	14_Gasmed_L	15_Soleus_L	16_Tibant_L	
18.937	  0.012467	  0.437311	  0.124387	  0.145713	  0.076513	  0.123273	  0.025602	  0.192326	  0.142915	  0.381247	  0.044224	  0.030923	  0.052407	  0.237382	  0.118356	  0.422486	
18.938	  0.012467	  0.433982	  0.124031	  0.145635	  0.075925	  0.123050	  0.026624	  0.187751	  0.141842	  0.375729	  0.043756	  0.031066	  0.051783	  0.236749	  0.118177	  0.427027	
18.939	  0.012467	  0.430505	  0.123656	  0.145505	  0.075338	  0.122917	  0.027775	  0.183197	  0.140803	  0.370069	  0.043301	  0.031220	  0.051192	  0.235975	  0.117977	  0.431589	
18.940	  0.012467	  0.426887	  0.123261	  0.145318	  0.074751	  0.122879	  0.029057	  0.178674	  0.139802	  0.364274	  0.042862	  0.031382	  0.050636	  0.235062	  0.117752	  0.436147	
18.941	  0.012467	  0.423137	  0.122842	  0.145072	  0.074165	  0.122943	  0.030473	  0.174194	  0.138843	  0.358354	  0.042441	  0.031550	  0.050116	  0.234015	  0.117501	  0.440677	
18.942	  0.012467	  0.419260	  0.122399	  0.144765	  0.073580	  0.123112	  0.032023	  0.169766	  0.137929	  0.352317	  0.042038	  0.031723	  0.049632	  0.232837	  0.117220	  0.445157	
18.943	  0.012467	  0.415265	  0.121927	  0.144396	  0.072996	  0.123390	  0.033709	  0.165400	  0.137061	  0.346173	  0.041656	  0.031897	  0.049186	  0.231531	  0.116907	  0.449563	
18.944	  0.012467	  0.411158	  0.121425	  0.143962	  0.072412	  0.123782	  0.035530	  0.161107	  0.136242	  0.339931	  0.041296	  0.032071	  0.048777	  0.230101	  0.116561	  0.453873	
18.945	  0.012467	  0.406948	  0.120889	  0.143461	  0.071828	  0.124291	  0.037486	  0.156894	  0.135474	  0.333599	  0.040959	  0.032244	  0.048406	  0.228552	  0.116179	  0.458063	
18.946	  0.012467	  0.402641	  0.120319	  0.142892	  0.071245	  0.124919	  0.039578	  0.152770	  0.134758	  0.327186	  0.040647	  0.032412	  0.048072	  0.226887	  0.115759	  0.462113	
18.947	  0.012467	  0.398244	  0.119711	  0.142255	  0.070662	  0.125669	  0.041803	  0.148744	  0.134093	  0.320701	  0.040361	  0.032575	  0.047777	  0.225112	  0.115300	  0.466001	
18.948	  0.012467	  0.393763	  0.119063	  0.141547	  0.070079	  0.126544	  0.044161	  0.144823	  0.133480	  0.314154	  0.040102	  0.032730	  0.047518	  0.223229	  0.114799	  0.469707	
18.949	  0.012467	  0.389206	  0.118373	  0.140769	  0.069495	  0.127544	  0.046650	  0.141013	  0.132918	  0.307553	  0.039871	  0.032877	  0.047297	  0.221245	  0.114256	  0.473213	
18.950	  0.012467	  0.384578	  0.117640	  0.139920	  0.068910	  0.128671	  0.049266	  0.137322	  0.132407	  0.300906	  0.039670	  0.033013	  0.047112	  0.219163	  0.113669	  0.476500	
18.951	  0.012467	  0.379885	  0.116861	  0.139000	  0.068325	  0.129925	  0.052008	  0.133755	  0.131945	  0.294222	  0.039498	  0.033136	  0.046963	  0.216988	  0.113037	  0.479551	
18.952	  0.012467	  0.375132	  0.116035	  0.138009	  0.067739	  0.131306	  0.054872	  0.130317	  0.131530	  0.287509	  0.039358	  0.033246	  0.046849	  0.214725	  0.112358	  0.482349	
18.953	  0.012467	  0.370325	  0.115160	  0.136947	  0.067150	  0.132813	  0.057853	  0.127014	  0.131160	  0.280777	  0.039249	  0.033342	  0.046769	  0.212379	  0.111633	  0.484880	
18.954	  0.012467	  0.365469	  0.114236	  0.135815	  0.066560	  0.134445	  0.060948	  0.123848	  0.130833	  0.274032	  0.039172	  0.033421	  0.046722	  0.209955	  0.110859	  0.487131	
18.955	  0.012467	  0.360568	  0.113261	  0.134613	  0.065968	  0.136202	  0.064151	  0.120825	  0.130545	  0.267283	  0.039127	  0.033484	  0.046706	  0.207458	  0.110037	  0.489088	
18.956	  0.012467	  0.355626	  0.112234	  0.133344	  0.065373	  0.138080	  0.067457	  0.117946	  0.130293	  0.260538	  0.039115	  0.033528	  0.046721	  0.204892	  0.109166	  0.490742	
18.957	  0.012467	  0.350647	  0.111156	  0.132008	  0.064775	  0.140076	  0.070861	  0.115215	  0.130075	  0.253804	  0.039137	  0.033554	  0.046766	  0.202262	  0.108245	  0.492082	
18.958	  0.012467	  0.345636	  0.110025	  0.130606	  0.064175	  0.142189	  0.074356	  0.112632	  0.129885	  0.247088	  0.039191	  0.033560	  0.046838	  0.199574	  0.107275	  0.493101	
18.959	  0.012467	  0.340595	  0.108841	  0.129142	  0.063570	  0.144413	  0.077936	  0.110200	  0.129720	  0.240399	  0.039279	  0.033547	  0.046936	  0.196832	  0.106255	  0.493791	
18.960	  0.012467	  0.335527	  0.107606	  0.127617	  0.062962	  0.146746	  0.081594	  0.107918	  0.129575	  0.233743	  0.039400	  0.033512	  0.047060	  0.194041	  0.105186	  0.494147	
18.961	  0.012467	  0.330435	  0.106319	  0.126034	  0.062350	  0.149183	  0.085321	  0.105787	  0.129448	  0.227127	  0.039554	  0.033457	  0.047206	  0.191207	  0.104068	  0.494166	
18.962	  0.012467	  0.325322	  0.104981	  0.124395	  0.061734	  0.151718	  0.089111	  0.103806	  0.129331	  0.220557	  0.039740	  0.033380	  0.047375	  0.188332	  0.102902	  0.493845	
18.963	  0.012467	  0.320190	  0.103592	  0.122703	  0.061113	  0.154347	  0.092956	  0.101974	  0.129223	  0.214041	  0.039958	  0.033281	  0.047564	  0.185423	  0.101687	  0.493184	
18.964	  0.012467	  0.315042	  0.102155	  0.120962	  0.060488	  0.157063	  0.096846	  0.100289	  0.129116	  0.207584	  0.040208	  0.033162	  0.047771	  0.182484	  0.100425	  0.492182	
18.965	  0.012467	  0.309878	  0.100670	  0.119175	  0.059858	  0.159862	  0.100773	  0.098750	  0.129008	  0.201192	  0.040488	  0.033020	  0.047995	  0.179520	  0.099116	  0.490841	
18.966	  0.012467	  0.304702	  0.099139	  0.117345	  0.059223	  0.162737	  0.104729	  0.097354	  0.128894	  0.194873	  0.040799	  0.032858	  0.048235	  0.176534	  0.097762	  0.489165	
18.967	  0.012467	  0.299515	  0.097564	  0.115477	  0.058583	  0.165682	  0.108704	  0.096098	  0.128768	  0.188630	  0.041138	  0.032674	  0.048490	  0.173532	  0.096363	  0.487159	
18.968	  0.012467	  0.294318	  0.095947	  0.113573	  0.057939	  0.168690	  0.112689	  0.094978	  0.128627	  0.182471	  0.041505	  0.032470	  0.048757	  0.170518	  0.094921	  0.484827	
